<svg xmlns="http://www.w3.org/2000/svg" version="1.2" viewBox="0 0 400 250"><path d="M200 0c-.7 0-1.4.5-2.6 1-1.1.7-3.8 3-6 5-14.2 13.7-17 44.4-8.4 88.7.6 2.5 0 2-3.4-3.2-7-11-13.6-15-23.2-14a20.9 20.9 0 00-17.1 27.8 41 41 0 0015.7 16.3l3.9 2.4-.7-2.5c-2-6-2-8 .3-10.3 5.7-5.8 13.1-3 18.6 7.1l3.4 6.6h18.8c-.7-20-9.7-67 1.8-81 10.5 14.2 4.3 64.2 1 81h19.2l2.8-6.2c3.3-7 6.6-9.9 12-10 2.8 0 4.1.5 6.2 2.9 2.5 3 2.7 5.8.7 10.5-1.2 3 8.8-3.7 13.7-9.2 7.6-8.2 8.5-18.2 2.7-26.5a19.8 19.8 0 00-18.1-9c-7.6.6-12.9 4-18.7 12.5a31.2 31.2 0 01-4.6 6c-.1-.2.3-2.6 1-5.1 2.7-8 5-21.2 5.6-32.3 1.4-25-5.6-45.6-18.7-55.3-3.2-2.4-4.5-3.3-5.8-3.2zm200 49.1c-2.3.4-4.5 1.1-6.6 2.1-14.9 6.2-22.1 21-26.6 53.9-1.2 9.3-1.2 9.4-2.8 6.4-4.9-9.5-11.3-14.1-19.4-14.1-21.8 1.6-21.6 31.4-12.4 42.3 2 2.4 4.1 4.3 4.6 4.3.6 0 1.5-1.8 2.1-4 1.4-5.5 4.2-7.9 8.5-7.4 2.8.2 3.7 1 5.4 4.3 2.5 5.2 1.4 13.8-2 14.3-4.7 1-6.3 6.2-3 10 2.3 2.5.8 4.4-5.4 6.8-9.2 3.6-20.7.7-23.9-6-1.6-3.2-1.7-3.2-7.8-.6-7 2.7-13 1.7-18.3-2.3-3.6-2.7-4.2-5-2.9-7.6 1.7-.8 2.5-6 1.6-8.1-1.5-4.4 5-8 9.2-5.1 2.2 1.5 2.4 2.2 2 6.3-.8 5.6.3 6 7 2.6 5.6-2.9 8-6.6 8.7-12.8.5-7.2-5-12-11.5-11.3-3 .3-6.4.9-7.7 1.3-2 .7-2 .3 1.1-6 2.1-3.8 4.4-10 5.3-14.2 3.5-13.6 1.7-38.7-2.7-39.5-2.2-.4-9.6 6.4-12.6 11.8-5 10-7.7 21-7.7 32.2l-.6 13-4.4-5c-4.4-5-9.5-6.9-15.3-3.2-5.4 3.7-6.3 16.4-1.5 22.6l2.1 2.8 1.2-3.6c.9-2.7 1.7-3.6 4-3.8 3.6-.4 6.9 1.4 8.1 4.8.8 2.2.6 3.1-1.1 5-2.5 2.7-2.7 6.6-.6 9 1.4 1.7 1.4 2-.5 3.8-2.6 2.3-11 3.2-16 1.7-2-.8-5.3-3.2-7.2-5.6l-3.6-4.3-2.3 2.1c-6.7 6.5-20.7 3.2-23.8-5.6l-1.4-3.7h-40l-2 4.2a14.8 14.8 0 01-22.2 5.8c-1.3-1-2.7-2-4.2-2.5l-2 3.4c-4.8 7.9-21.2 9.6-25.4 2.8-1-1.7-1.2-3.6 0-4.4 1.6-2 .8-4.3-.5-6.6-1.4-2-.7-6 3.1-9 4.7-3.8 8.6-1.9 8.6 4 0 3.3 1.9 2.7 4.2-1.2 1.7-2.8 2-4.8 1.7-10.6-.2-6-.7-7.5-3-10-2.1-2-3.8-2.7-7.7-2.7-4.6 0-5.2.3-9.2 5l-4.1 5-.2-11.5c-.3-19-4.3-31.6-12.8-40.3-3.9-4-7.8-6.4-8.8-5.4-.2.2-1.1 3.3-2 6.7a77.6 77.6 0 005.6 47l3 6.3-4-1a15.6 15.6 0 00-14.2 2.7c-3.6 3.2-4 10.7-.7 15.2 3.4 4.8 15 9.5 14 5.6-1.3-4.7-1.1-6 .2-7.9 3.3-4.5 11.5-.8 10.4 4.8-.9 3.9-.1 4.8 1.1 5.7 1.5 2.4 1.5 3 .1 5.8-1.9 3.7-9 7.5-14 7.5-7.4-.2-10-.5-12.8-3.6-1.6 4.2-10 10-17 10-6.1 0-10-1.3-13.4-4.5-2.4-2.2-2.4-2.2-.3-4.2 3.6-3.5 2.5-7.7-2.7-10-3.4-1.4-3.5-1.6-3.5-7.1 0-7.1 2.8-11.4 7.3-11.4 4.8 0 7.3 3.3 8.3 11.2.4 1.8 1 1.5 4.8-2.4 5.3-5 8.6-11.9 9.3-19.3.4-5 0-6.7-2.5-11.7a31.2 31.2 0 00-7.4-9.4A18 18 0 0045.7 99a35.3 35.3 0 00-11.2 12.6l-1.8 3.3-1.3-11c-3.6-29.6-11.2-45.5-24.8-52-9.8-4.6-10.1-6.5 9 49.8C26.1 133 32.5 153.4 32 154c-1.4 3.1-1 4.6 2.1 8.1 1.8 2.2 4 7 5.7 12.9l2.8 9.3-2 2.8c-3.7 4.6-2.4 9.8 2.4 9.8 1.2 0 6.7-1.6 12.6-3.7a609 609 0 0160-15.4c39.8-7.7 83.7-10 124.3-6.3 36.3 3.6 72 11.3 106.7 22.9 10 3.5 12.4 3.1 12.8-1.6.3-2.4-.4-4.7-1.7-6.6l-2.1-2.9 3.5-9.6c2.1-5.3 4.6-10.6 5.8-11.9 1.7-1.7 2.1-3.2 1.7-6.3-.4-3.5 1.8-11 12.7-43.2 16.3-48 21.2-62.8 20.7-63.3zM101.4 84.7c8.3 8.8 9.1 29 8.6 38.6-6.3-8.3-12.9-30.9-8.6-38.6zm196 0c4.6 11.3-1.6 28.5-7.7 38.6-1.1-9.5.3-32.3 7.7-38.5zM185 127a4.8 4.8 0 00-4.7 4.8c0 2.7 2.1 4.8 4.7 4.8s4.7-2.1 4.7-4.8c0-2.6-2-4.8-4.7-4.8zm29.5 0a4.8 4.8 0 00-4.8 4.8c0 2.7 2.2 4.8 4.8 4.8 2.5 0 4.7-2.1 4.7-4.8 0-2.6-2.2-4.8-4.7-4.8zm-14.3 0a4.8 4.8 0 00-4.7 4.8c0 2.7 2.1 4.9 4.7 4.9s4.7-2.2 4.7-4.9c0-2.6-2-4.8-4.7-4.8zm.2 47.7c-6.3 0-11.4 5.3-11.4 11.7 0 6.5 5 11.7 11.4 11.7 6.3 0 11.4-5.2 11.4-11.7 0-6.4-5-11.7-11.4-11.7zm-33.8 1.2c-1 5.4-4.9 9.1-10.1 12.5 6.5 1.8 8.6 5.8 11.9 9.7.6-2.5 4.2-8.7 10-10.6-8.2-4-9.2-6.3-11.8-11.6zm67.7.2a60.8 60.8 0 01-12.3 10.5c5.2 3 8.3 7.7 11 12.9 3-5.5 7.7-8.4 12.5-11.6-5.1-2.2-8.8-8.7-11.2-11.8zm-99.5 3.6c-6.3 0-11.4 5.2-11.4 11.7 0 6.4 5.1 11.6 11.4 11.6 6.4 0 11.5-5.2 11.5-11.6 0-6.5-5.1-11.7-11.5-11.7zm132.4.2c-6.3 0-11.4 5.2-11.4 11.7 0 6.4 5.1 11.7 11.4 11.7 6.3 0 11.5-5.3 11.5-11.7 0-6.5-5.2-11.7-11.5-11.7zm33.9 5.7c-3 2.6-7.5 7.7-13.9 8.3 5.7 4.1 7 9.8 8.2 15.5 3.5-5 9.2-7.6 14.6-8.8-5.2-4.2-8.2-10-9-15zm-200.4 1a28.9 28.9 0 01-8 14.7c5.9 1.3 9.7 4.6 13.8 8.5 1-6.2 5.5-11.5 8.5-15.4-6.9-.6-12-5-14.3-7.8zM70 195.5c-6.3 0-11.4 5.2-11.4 11.7 0 6.4 5.1 11.6 11.4 11.6 6.3 0 11.4-5.2 11.4-11.6 0-6.5-5-11.7-11.4-11.7zm262.4 0c-6.3 0-11.4 5.2-11.4 11.7 0 6.4 5 11.6 11.4 11.6 6.3 0 11.4-5.2 11.4-11.6 0-6.5-5.1-11.7-11.4-11.7zm-133 7A421.8 421.8 0 0064 225.8c-8.3 3.1-16.6 6.9-13 18 3.5 11.2 21.8 2.8 25 1.8 39.4-14.2 82-23.7 123.6-22.5 46-1.4 91.8 7 134.5 24.4 7.5 3.5 11.5 3.4 15.4-.6 5.4-5.6 3.5-12.4-4.6-16.7-9.7-5-48-16.3-69.6-20.4-25-5-50.3-7.5-75.7-7.3z"/></svg>