<?xml version="1.0" encoding="UTF-8" standalone="no"?>
<svg
   xmlns:dc="http://purl.org/dc/elements/1.1/"
   xmlns:cc="http://creativecommons.org/ns#"
   xmlns:rdf="http://www.w3.org/1999/02/22-rdf-syntax-ns#"
   xmlns:svg="http://www.w3.org/2000/svg"
   xmlns="http://www.w3.org/2000/svg"
   id="svg33"
   version="1.2"
   viewBox="0 0 389 237"
   height="237pt"
   width="389pt">
  <metadata
     id="metadata39">
    <rdf:RDF>
      <cc:Work
         rdf:about="">
        <dc:format>image/svg+xml</dc:format>
        <dc:type
           rdf:resource="http://purl.org/dc/dcmitype/StillImage" />
        <dc:title></dc:title>
      </cc:Work>
    </rdf:RDF>
  </metadata>
  <defs
     id="defs37" />
  <g
     id="surface715">
    <path
       id="path2"
       d="M 193.5 2.179688 C 192.394531 2.800781 189.800781 4.898438 187.699219 6.871094 C 173.964844 19.777344 171.160156 48.699219 179.59375 90.5 C 180.089844 92.949219 179.480469 92.398438 176.277344 87.5 C 169.480469 77.101562 163.152344 73.351562 153.898438 74.242188 C 141.300781 75.457031 132.960938 88.738281 137.417969 100.5 C 139.195312 105.191406 145.898438 112.007812 152.601562 115.933594 L 156.300781 118.101562 L 155.566406 115.800781 C 153.746094 110.101562 153.8125 108.1875 155.898438 106.101562 C 161.398438 100.601562 168.605469 103.300781 173.804688 112.800781 L 177.199219 119 L 195.300781 119 L 194.699219 116.148438 C 194.371094 114.585938 193.351562 106.800781 192.441406 98.898438 C 190.265625 80 190.90625 59.453125 193.972656 49.800781 C 195.148438 46.101562 196.503906 42.84375 197 42.527344 C 198.710938 41.445312 201.242188 53.398438 202.4375 68.199219 C 203.136719 76.828125 201.554688 98.699219 199.417969 110 C 198.644531 114.101562 198 117.839844 198 118.25 C 198 118.664062 202.148438 118.976562 207.25 118.949219 L 216.5 118.898438 L 219.246094 113.101562 C 222.371094 106.5 225.636719 103.84375 230.800781 103.699219 C 233.5 103.621094 234.855469 104.238281 236.722656 106.398438 C 239.199219 109.261719 239.414062 111.898438 237.535156 116.300781 C 236.304688 119.171875 245.941406 112.898438 250.746094 107.699219 C 257.957031 99.898438 258.898438 90.5 253.257812 82.699219 C 248.878906 76.652344 242.898438 73.746094 235.800781 74.21875 C 228.449219 74.710938 223.425781 78 217.8125 86 C 215.496094 89.300781 213.441406 91.820312 213.25 91.601562 C 213.058594 91.382812 213.574219 89.199219 214.382812 86.800781 C 216.933594 79.234375 219.117188 66.800781 219.71875 56.398438 C 221.085938 32.800781 214.34375 13.285156 201.699219 4.226562 C 196.699219 0.644531 196.386719 0.5625 193.5 2.179688 "
       style=" stroke:none;fill-rule:nonzero;fill:rgb(0%,0%,0%);fill-opacity:1;" />
    <path
       id="path4"
       d="M 382.601562 49.488281 C 368.214844 55.308594 361.191406 69.199219 356.921875 100.300781 C 355.714844 109.101562 355.683594 109.167969 354.179688 106.300781 C 349.507812 97.398438 343.328125 93 335.5 93 C 330.101562 93 326.652344 94.613281 322.253906 99.199219 C 313.304688 108.53125 313.804688 122.199219 323.488281 132.898438 C 325.570312 135.199219 327.574219 137 328.050781 137 C 328.519531 137 329.363281 135.300781 329.933594 133.199219 C 331.347656 128 333.957031 125.785156 338.199219 126.1875 C 340.890625 126.441406 341.84375 127.199219 343.363281 130.300781 C 345.769531 135.199219 344.660156 143.25 341.5 143.828125 C 336.898438 144.667969 335.394531 149.59375 338.632812 153.199219 C 340.769531 155.574219 339.300781 157.375 333.398438 159.625 C 324.5 163.015625 313.472656 160.285156 310.261719 153.898438 C 308.824219 151.046875 308.699219 151.039062 302.800781 153.363281 C 296.101562 156.003906 289.765625 154.96875 285.300781 150.5 C 281.640625 146.839844 281.355469 145.5 283.382812 141.5 C 284.34375 139.601562 284.519531 137.960938 283.929688 136.398438 C 282.378906 132.300781 288.601562 128.867188 292.699219 131.558594 C 294.914062 133.011719 295.132812 133.699219 294.617188 137.601562 C 293.929688 142.820312 295 143.199219 301.398438 140 C 306.800781 137.296875 309.21875 133.800781 309.761719 127.898438 C 310.164062 123.5 309.9375 122.835938 307.050781 119.949219 C 304.140625 117.042969 303.5 116.839844 298.699219 117.300781 C 295.800781 117.578125 292.527344 118.109375 291.300781 118.5 C 289.222656 119.160156 289.285156 118.851562 292.449219 112.851562 C 294.316406 109.3125 296.574219 103.398438 297.546875 99.5 C 300.761719 86.601562 299.089844 63.011719 294.898438 62.203125 C 292.707031 61.78125 285.644531 68.199219 282.6875 73.300781 C 278.226562 81 275.914062 90.5 275.28125 103.699219 L 274.699219 115.898438 L 270.5 111.199219 C 266.835938 107.101562 265.789062 106.5 262.300781 106.5 C 260.101562 106.5 257.128906 107.277344 255.699219 108.226562 C 250.46875 111.703125 249.605469 123.699219 254.175781 129.5 L 256.300781 132.199219 L 257.398438 128.851562 C 258.253906 126.25 259.105469 125.429688 261.199219 125.1875 C 264.800781 124.769531 267.878906 126.527344 269.101562 129.699219 C 269.90625 131.800781 269.695312 132.722656 268 134.5 C 265.613281 137 265.386719 140.671875 267.476562 143 C 268.847656 144.53125 268.800781 144.878906 267 146.484375 C 264.460938 148.746094 256.300781 149.585938 251.601562 148.066406 C 249.644531 147.433594 246.425781 145.050781 244.550781 142.851562 L 241.101562 138.800781 L 238.898438 140.851562 C 232.375 146.941406 218.851562 143.800781 215.859375 135.5 L 214.601562 132 L 176 132 L 173.980469 136 C 169.886719 144.101562 160.207031 146.535156 152.601562 141.375 C 150.5 139.953125 148.710938 138.957031 148.601562 139.148438 C 148.492188 139.335938 147.589844 140.800781 146.652344 142.300781 C 142.03125 149.699219 126.226562 151.378906 122.183594 144.898438 C 121.1875 143.300781 121.238281 143 122.5 143 C 125.1875 143 125.527344 138.199219 123.070312 134.898438 C 120.53125 131.484375 121 128.921875 124.699219 126.015625 C 129.167969 122.507812 133 124.300781 133 129.898438 C 133 132.917969 134.761719 132.398438 137.089844 128.699219 C 138.726562 126.09375 139.035156 124.25 138.75 118.75 C 138.453125 113.050781 137.988281 111.589844 135.75 109.351562 C 133.628906 107.230469 132.148438 106.699219 128.351562 106.699219 C 123.949219 106.699219 123.300781 107.046875 119.550781 111.398438 L 115.5 116.101562 L 115.324219 105.300781 C 115.03125 87.300781 111.207031 75.507812 103 67.300781 C 99.199219 63.5 95.449219 61.25 94.5 62.199219 C 94.28125 62.417969 93.398438 65.300781 92.566406 68.5 C 89.292969 81.101562 91.617188 100.300781 97.941406 112.898438 L 100.898438 118.800781 L 97 117.800781 C 91.898438 116.492188 86.71875 117.476562 83.300781 120.402344 C 79.851562 123.351562 79.480469 130.5 82.558594 134.699219 C 85.929688 139.300781 97.035156 143.652344 96.082031 140 C 94.933594 135.601562 94.964844 134.34375 96.257812 132.601562 C 99.472656 128.261719 107.429688 131.800781 106.375 137.101562 C 106.019531 138.898438 106.40625 140.949219 107.398438 142.5 C 108.835938 144.742188 108.847656 145.300781 107.519531 147.898438 C 105.746094 151.378906 98.800781 155 93.898438 155 C 92.015625 155 88.601562 154.078125 86.5 153.007812 C 81.601562 150.5 81.601562 150.5 80.375 153.800781 C 78.929688 157.691406 72 161 65.300781 161 C 59.300781 161 55.476562 159.773438 52.300781 156.832031 C 50 154.699219 50 154.699219 52 152.824219 C 55.507812 149.535156 54.398438 145.570312 49.398438 143.503906 C 46.125 142.152344 46 141.898438 46 136.699219 C 46 130 48.65625 126 53.101562 126 C 57.679688 126 60.070312 129.101562 61.195312 136.5 C 61.457031 138.214844 62.101562 137.898438 65.699219 134.300781 C 71.234375 128.765625 74.085938 123 74.699219 116.101562 C 75.128906 111.300781 74.785156 109.714844 72.300781 105 C 70.613281 101.800781 67.601562 98.140625 65.101562 96.25 C 61.46875 93.507812 59.949219 93 55.351562 93 C 52.351562 93 48.640625 93.65625 47.101562 94.460938 C 43.785156 96.195312 38.765625 101.699219 36.308594 106.300781 L 34.601562 109.5 L 33.292969 99 C 29.832031 71.199219 22.503906 56.1875 9.398438 50.058594 C -0.0546875 45.632812 -0.390625 43.800781 18.015625 97 C 28.292969 126.699219 34.433594 145.886719 33.855469 146.5 C 32.265625 148.183594 32.964844 150.898438 35.832031 154.199219 C 37.625 156.261719 39.710938 160.800781 41.398438 166.300781 L 44.101562 175.101562 L 42.046875 177.699219 C 38.597656 182.066406 39.898438 187 44.5 187 C 45.609375 187 51 185.464844 56.601562 183.550781 C 67.914062 179.691406 97.699219 172.210938 114.5 169.011719 C 152.925781 161.695312 195.300781 159.589844 234.5 163.054688 C 267 165.929688 308.871094 174.683594 337.398438 184.574219 C 347 187.902344 349.394531 187.617188 349.796875 183.101562 C 349.992188 180.898438 349.394531 178.730469 348.101562 176.949219 L 346.101562 174.199219 L 349.550781 165.101562 C 351.445312 160.101562 353.945312 155.054688 355.101562 153.898438 C 356.746094 152.253906 357.09375 150.949219 356.699219 147.851562 C 356.285156 144.589844 358.425781 137.5 368.957031 107.199219 C 384.667969 62 389.359375 47.960938 388.898438 47.5 C 388.683594 47.28125 385.800781 48.191406 382.601562 49.488281 Z M 106 90.800781 C 107.453125 94.675781 108.253906 99.648438 108.601562 106.949219 L 109.101562 117.5 L 106.527344 113.5 C 102.695312 107.535156 101 100.699219 101 91.199219 C 101 83.898438 101.191406 82.957031 102.449219 84 C 103.253906 84.664062 104.839844 87.699219 106 90.800781 Z M 289.78125 93.898438 C 289.363281 102.199219 288.839844 104.449219 285.898438 110.5 L 282.5 117.5 L 282.21875 110.699219 C 281.875 102.5 283.191406 94.8125 286.105469 88 C 289.203125 80.765625 290.34375 82.601562 289.78125 93.898438 "
       style=" stroke:none;fill-rule:nonzero;fill:rgb(0%,0%,0%);fill-opacity:1;" />
    <path
       id="path6"
       d="M 178.71875 122.800781 C 177.8125 123.800781 177 125.175781 177 125.699219 C 177 127.40625 180.5 130 182.800781 130 C 185.046875 130 186.488281 126.800781 185.820312 123.300781 C 185.339844 120.800781 180.8125 120.480469 178.71875 122.800781 "
       style=" stroke:none;fill-rule:nonzero;fill:rgb(0%,0%,0%);fill-opacity:1;" />
    <path
       id="path8"
       d="M 192.699219 122.5 C 190.542969 124.65625 190.601562 126.316406 192.898438 128.398438 C 195.644531 130.886719 198.875 130.5 199.601562 127.601562 C 199.925781 126.300781 200.046875 124.375 199.863281 123.398438 C 199.417969 121 194.78125 120.417969 192.699219 122.5 "
       style=" stroke:none;fill-rule:nonzero;fill:rgb(0%,0%,0%);fill-opacity:1;" />
    <path
       id="path10"
       d="M 206.5 122.601562 C 204.714844 124.386719 204.621094 125.398438 206.007812 128 C 207.183594 130.199219 211.914062 130.6875 213.800781 128.800781 C 216.421875 126.179688 213.898438 121 210 121 C 209 121 207.34375 121.757812 206.5 122.601562 "
       style=" stroke:none;fill-rule:nonzero;fill:rgb(0%,0%,0%);fill-opacity:1;" />
    <path
       id="path12"
       d="M 189.199219 168.519531 C 184.101562 172.804688 183.820312 180.601562 188.601562 185.351562 C 193.230469 189.957031 201.730469 189.101562 205.019531 183.699219 C 210.042969 175.453125 205.601562 166 196.699219 166 C 193.300781 166 191.46875 166.617188 189.199219 168.519531 "
       style=" stroke:none;fill-rule:nonzero;fill:rgb(0%,0%,0%);fill-opacity:1;" />
    <path
       id="path14"
       d="M 163 168.699219 C 163 169.632812 160.949219 172.316406 158.449219 174.648438 L 153.898438 178.898438 L 157.550781 180.601562 C 159.550781 181.53125 162.15625 183.792969 163.316406 185.601562 C 165.886719 189.601562 166.554688 189.78125 167.324219 186.699219 C 167.925781 184.300781 173.554688 178 175.101562 178 C 177.054688 178 175.699219 176.121094 172.898438 174.953125 C 171.265625 174.269531 168.75 172.199219 167.371094 170.398438 C 164.53125 166.699219 163 166.101562 163 168.699219 "
       style=" stroke:none;fill-rule:nonzero;fill:rgb(0%,0%,0%);fill-opacity:1;" />
    <path
       id="path16"
       d="M 227.0625 169.398438 C 226.363281 170.667969 223.851562 172.933594 221.449219 174.449219 L 217.101562 177.199219 L 220.300781 179.398438 C 222.046875 180.601562 224.476562 183.351562 225.648438 185.449219 L 227.800781 189.300781 L 229.601562 186.5 C 230.585938 184.96875 233.300781 182.5 235.601562 181.050781 L 239.800781 178.398438 L 236.398438 175.648438 C 234.5 174.113281 232.34375 171.621094 231.511719 170 C 229.660156 166.398438 228.773438 166.28125 227.0625 169.398438 "
       style=" stroke:none;fill-rule:nonzero;fill:rgb(0%,0%,0%);fill-opacity:1;" />
    <path
       id="path18"
       d="M 129.300781 171.09375 C 122.855469 172.988281 119.988281 181.199219 123.433594 187.898438 C 126.363281 193.601562 134.929688 194.859375 140 190.332031 C 146.082031 184.90625 144.699219 174.445312 137.5 171.402344 C 133.699219 169.800781 133.699219 169.800781 129.300781 171.09375 "
       style=" stroke:none;fill-rule:nonzero;fill:rgb(0%,0%,0%);fill-opacity:1;" />
    <path
       id="path20"
       d="M 257.699219 171.066406 C 253.898438 172.1875 251.929688 173.972656 250.382812 177.699219 C 248.597656 182 249.640625 186.441406 253.300781 190.101562 C 257.398438 194.199219 263.953125 194.246094 268 190.199219 C 271.660156 186.539062 272.570312 182.898438 271.070312 177.898438 C 269.355469 172.1875 263.699219 169.296875 257.699219 171.066406 "
       style=" stroke:none;fill-rule:nonzero;fill:rgb(0%,0%,0%);fill-opacity:1;" />
    <path
       id="path22"
       d="M 291.925781 177.699219 C 290.097656 180.300781 284.09375 184 281.699219 184 C 279.417969 184 279.601562 185.332031 282.199219 187.636719 C 283.363281 188.667969 285.28125 191.601562 286.5 194.199219 L 288.699219 198.898438 L 291.550781 195.949219 C 293.125 194.320312 296.101562 192.484375 298.199219 191.851562 C 300.300781 191.214844 302 190.589844 302 190.449219 C 302 190.308594 300.6875 188.800781 299 187 C 297.3125 185.199219 295.976562 183.296875 295.949219 182.648438 C 295.921875 182.027344 295.328125 180.148438 294.648438 178.550781 C 293.421875 175.648438 293.375 175.636719 291.925781 177.699219 "
       style=" stroke:none;fill-rule:nonzero;fill:rgb(0%,0%,0%);fill-opacity:1;" />
    <path
       id="path24"
       d="M 98.671875 180 C 98.359375 181.574219 96.433594 184.75 94.449219 186.949219 C 91.746094 189.949219 91.214844 191 92.398438 191 C 94.738281 191 100 193.792969 103.101562 196.679688 L 105.699219 199.101562 L 106.300781 196.300781 C 106.632812 194.746094 108.453125 191.5 110.398438 189 L 113.898438 184.5 L 109.648438 183.300781 C 107.351562 182.652344 104.324219 180.953125 103.058594 179.601562 C 100.007812 176.34375 99.382812 176.398438 98.671875 180 "
       style=" stroke:none;fill-rule:nonzero;fill:rgb(0%,0%,0%);fill-opacity:1;" />
    <path
       id="path26"
       d="M 65.199219 186.359375 C 61.527344 188.398438 59 193.101562 59 197.898438 C 59 201.300781 59.605469 202.800781 61.898438 205.070312 C 65.933594 209.0625 72.5 209.15625 77.101562 205.292969 C 81.308594 201.753906 82.34375 198.800781 81.050781 194 C 79.085938 186.699219 71.324219 182.960938 65.199219 186.359375 "
       style=" stroke:none;fill-rule:nonzero;fill:rgb(0%,0%,0%);fill-opacity:1;" />
    <path
       id="path28"
       d="M 319.199219 186.089844 C 313.140625 187.886719 310.160156 196.5 313.414062 202.800781 C 315.171875 206.203125 318.898438 208 324.199219 208 C 329.699219 208 335 202.945312 335 197.699219 C 335 188.398438 328.214844 183.414062 319.199219 186.089844 "
       style=" stroke:none;fill-rule:nonzero;fill:rgb(0%,0%,0%);fill-opacity:1;" />
    <path
       id="path30"
       d="M 171 193.128906 C 133.398438 195.71875 91.566406 203.945312 64.699219 214.03125 C 56.601562 217.074219 52 221.625 52 226.601562 C 52 231 52.628906 232.234375 55.699219 233.875 C 59.136719 235.707031 61.199219 235.347656 77.300781 230.101562 C 120.980469 215.875 147.800781 211.671875 195.5 211.578125 C 227.398438 211.511719 238.511719 212.359375 262 216.648438 C 284.800781 220.8125 312.726562 228.710938 325.300781 234.550781 C 332.5 237.890625 336.417969 237.773438 340.0625 234.101562 C 345.285156 228.839844 343.5 222.390625 335.699219 218.328125 C 326.332031 213.449219 289.398438 202.871094 268.5 199.082031 C 232.300781 192.511719 204.554688 190.820312 171 193.128906 "
       style=" stroke:none;fill-rule:nonzero;fill:rgb(0%,0%,0%);fill-opacity:1;" />
  </g>
</svg>
